<?xml version="1.0" encoding="UTF-8" standalone="no"?>
<svg
   width="580.3125"
   height="473.23975"
   viewBox="0 0 580.3125 473.23975"
   version="1.1"
   id="svg26"
   sodipodi:docname="pulpit_logo_smooth.svg"
   inkscape:version="1.2.2 (b0a8486541, 2022-12-01)"
   xmlns:inkscape="http://www.inkscape.org/namespaces/inkscape"
   xmlns:sodipodi="http://sodipodi.sourceforge.net/DTD/sodipodi-0.dtd"
   xmlns="http://www.w3.org/2000/svg"
   xmlns:svg="http://www.w3.org/2000/svg">
  <defs
     id="defs30" />
  <sodipodi:namedview
     id="namedview28"
     pagecolor="#ffffff"
     bordercolor="#000000"
     borderopacity="0.25"
     inkscape:showpageshadow="2"
     inkscape:pageopacity="0.0"
     inkscape:pagecheckerboard="0"
     inkscape:deskcolor="#d1d1d1"
     showgrid="false"
     inkscape:zoom="1.0029297"
     inkscape:cx="555.37292"
     inkscape:cy="216.36611"
     inkscape:window-width="2494"
     inkscape:window-height="1364"
     inkscape:window-x="0"
     inkscape:window-y="0"
     inkscape:window-maximized="1"
     inkscape:current-layer="svg26" />
  <path
     d="m 307.68108,232.39459 c -17.5,6 -50,20 -65,26 -15,6 -19.5,6 -27,8 -7.5,2 -9.5,2.5 -18,3 -8.5,0.5 -25,1 -33,0 -8,-1 -17,-5 -17,-4 0,1 9,6 16,8 7,2 16.5,5 26,6 9.5,1 23,0.5 31,0 8,-0.5 4,1 19,-3 15,-4 51,-17.5 69,-22 18,-4.5 26,-5 38,-5 12,0 23.5,1 33,3 9.5,2 18.33405,4.18984 24,7 5.5,2.72785 8.62999,4.67819 12,6 v -33 c -34.48136,-10.59123 -75.31503,-10.45463 -108,0 z"
     fill="#000000"
     fill-rule="evenodd"
     id="path16"
     sodipodi:nodetypes="csssssssssssssccc" />
  <path
     d="m 301.68108,195.39459 c -20.5,8 -54,25 -72,33 -18,8 -28.5,10 -38,13 -9.5,3 -12,2.5 -19,3 -7,0.5 -15,0.5 -21,0 -6,-0.5 -10.5,-1 -17,-3 -6.5,-2 -22,-10 -22,-9 0,1 12,13 20,17 8,4 20,7 29,8 9,1 17,1 25,0 8,-1 14,-2 23,-4 9,-2 16,-4 33,-10 17,-6 53,-21 67,-26 14,-5 10,-3.5 19,-5 35.72068,-6.88494 81.87856,-2.1436 113,12 7,3.5 18,14.5 20,14 2,-0.5 -4,-11 -9,-17 -11.46825,-14.31494 -26.32601,-26.01989 -42,-32 -33.32822,-12.5709 -77.42842,-5.76519 -109,6 z"
     fill="#000000"
     fill-rule="evenodd"
     id="path18"
     sodipodi:nodetypes="cssssssssssssccsccc" />
  <path
     d="m 142.68108,137.39459 v 77 c -9.91961,13.57228 -36.07012,-8.26988 -44,-10 -1.5,0.5 6.5,8 10,11 3.5,3 7,5 11,7 4,2 10,4 15,5 5,1 9,2 16,2 22.50217,0.72178 42.86945,-3.81475 56,-9 20,-8 64,-29 86,-38 22,-9 30.5,-11 45,-14 14.5,-3 28.5,-5 42,-4 13.5,1 32.5,12.5 39,8 v -35 z"
     fill="#000000"
     fill-rule="evenodd"
     id="path20"
     sodipodi:nodetypes="cccsssccsssccc" />
  <path
     d="m 97.68108,104.39459 v 30 c 12.82575,11.83171 24.80107,24.53288 37,37 0.27832,-11.32996 0.38187,-15.6538 0.38187,-20.97016 -1.38126,-1.38126 -0.42289,0.73684 -15.31079,-21.50891 l 320.92892,0.80928 -13,21.66979 v 21 l 36,-41 v -27 z"
     fill="#000000"
     fill-rule="evenodd"
     id="path22"
     sodipodi:nodetypes="ccccccccccc" />
  <path
     d="m 190.68108,5.3945933 c -7.76825,7.3251397 -31,32.9999997 -37,40.9999997 -6,8 0,6 -1,9 -1,3 -5,6 -7,9 -2,3 -3,5 -4,11 -1,6 -1,20 0,24 h 8 c 1,-3 -1,-12 0,-18 1,-6 5,-15 8,-18 h 9 l 2,36 h 8 l 2,-45 14,-8 v -3 l -16,-17 -0.46689,-4.31743 19.46689,21.31743 c 9.96484,0.3506 25.70795,-12.48908 29,-21 1.5,-4 2,-7 0,-11 -13.03932,-14.8284597 -26.23175,-13.3251397 -34,-5.9999997 z"
     fill="#000000"
     fill-rule="evenodd"
     id="path24"
     sodipodi:nodetypes="zssssccsccccccccccccz" />
  <path
     d="m 0,473.23974 v -137.4375 h 35.71875 v 14.71875 q 7.40625,-9.28125 13.59375,-12.5625 8.34375,-4.40625 18.46875,-4.40625 19.96875,0 30.84375,15.28125 10.96875,15.28125 10.96875,37.78125 0,24.84375 -11.90625,37.96875 -11.90625,13.03125 -30.09375,13.03125 -8.8125,0 -16.125,-3 -7.21875,-3 -12.9375,-8.90625 v 47.53125 z m 38.25,-87.375 q 0,11.8125 4.96875,17.53125 4.96875,5.71875 12.5625,5.71875 6.65625,0 11.15625,-5.4375 4.5,-5.53125 4.5,-18.65625 0,-12.09375 -4.6875,-17.71875 -4.6875,-5.71875 -11.4375,-5.71875 -7.3125,0 -12.1875,5.71875 -4.875,5.71875 -4.875,18.5625 z"
     id="path1014"
     style="font-size:192px;font-family:'Arial Black';-inkscape-font-specification:'Arial Black, Normal';white-space:pre;display:inline" />
  <path
     d="m 232.78125,435.36474 h -35.625 v -16.125 q -7.96875,9.9375 -16.125,14.15625 -8.0625,4.21875 -19.875,4.21875 -15.75,0 -24.75,-9.375 Q 127.5,418.77099 127.5,399.17724 v -63.375 h 38.34375 v 54.75 q 0,9.375 3.46875,13.3125 3.46875,3.9375 9.75,3.9375 6.84375,0 11.15625,-5.25 4.40625,-5.25 4.40625,-18.84375 v -47.90625 h 38.15625 z"
     id="path1016"
     style="font-size:192px;font-family:'Arial Black';-inkscape-font-specification:'Arial Black, Normal';white-space:pre;display:inline" />
  <path
     d="m 257.25,297.92724 h 38.25 v 137.4375 h -38.25 z"
     id="path1018"
     style="font-size:192px;font-family:'Arial Black';-inkscape-font-specification:'Arial Black, Normal';white-space:pre;display:inline" />
  <path
     d="m 320.0625,473.23974 v -137.4375 h 35.71875 v 14.71875 q 7.40625,-9.28125 13.59375,-12.5625 8.34375,-4.40625 18.46875,-4.40625 19.96875,0 30.84375,15.28125 10.96875,15.28125 10.96875,37.78125 0,24.84375 -11.90625,37.96875 -11.90625,13.03125 -30.09375,13.03125 -8.8125,0 -16.125,-3 -7.21875,-3 -12.9375,-8.90625 v 47.53125 z m 38.25,-87.375 q 0,11.8125 4.96875,17.53125 4.96875,5.71875 12.5625,5.71875 6.65625,0 11.15625,-5.4375 4.5,-5.53125 4.5,-18.65625 0,-12.09375 -4.6875,-17.71875 -4.6875,-5.71875 -11.4375,-5.71875 -7.3125,0 -12.1875,5.71875 -4.875,5.71875 -4.875,18.5625 z"
     id="path1020"
     style="font-size:192px;font-family:'Arial Black';-inkscape-font-specification:'Arial Black, Normal';white-space:pre;display:inline" />
  <path
     d="M 449.34375,297.92724 H 487.5 v 25.96875 h -38.15625 z m 0,37.875 H 487.5 v 99.5625 h -38.15625 z"
     id="path1022"
     style="font-size:192px;font-family:'Arial Black';-inkscape-font-specification:'Arial Black, Normal';white-space:pre;display:inline" />
  <path
     d="m 557.90625,297.92724 v 37.875 h 21 v 27.84375 h -21 v 35.34375 q 0,6.375 1.21875,8.4375 1.875,3.1875 6.5625,3.1875 4.21875,0 11.8125,-2.4375 l 2.8125,26.34375 q -14.15625,3.09375 -26.4375,3.09375 -14.25,0 -21,-3.65625 -6.75,-3.65625 -10.03125,-11.0625 -3.1875,-7.5 -3.1875,-24.1875 v -35.0625 h -14.0625 v -27.84375 h 14.0625 v -18.28125 z"
     id="path1024"
     style="font-size:192px;font-family:'Arial Black';-inkscape-font-specification:'Arial Black, Normal';white-space:pre;display:inline" />
</svg>
